<svg width="126" height="94" viewBox="0 0 126 94" xmlns="http://www.w3.org/2000/svg"><title>logo</title><path d="M56.35 65.426C40.491 75.968 30.794 81.239 27.258 81.239c-.446 0-.668-.134-.668-.401 0-1.693 1.291-3.92 3.874-6.681a65.484 65.484 0 0 1 8.285-7.483 275.752 275.752 0 0 1 9.019-6.547c3.073-2.138 4.899-3.407 5.478-3.808.579-.4.869-.913.869-1.536 0-.624-1.114-2.405-3.34-5.345-.624-.624-1.627-.935-3.007-.935-1.38 0-3.23.378-5.545 1.135-2.316.758-4.12 1.136-5.412 1.136-1.291 0-4.342-1.202-9.152-3.608-4.81-2.405-7.706-3.607-8.686-3.607-2.583 0-4.453.29-5.611.868-1.158.58-1.737 1.76-1.737 3.541 0 .267.133.713.4 1.336.802 1.871 2.628 3.786 5.479 5.746A671.834 671.834 0 0 1 2.138 66.006C.713 67.164 0 68.077 0 68.746c0 .668 1.069 1.002 3.207 1.002s3.875-.49 5.21-1.47c5.702-4.81 9.71-8.24 12.026-10.289.713 1.07 2.36 1.982 4.944 2.74 2.583.757 4.632 1.135 6.146 1.135-7.304 5.345-12.092 9.598-14.363 12.76-2.272 3.163-3.408 6.436-3.408 9.821 0 6.236 3.118 9.354 9.354 9.354 4.008 0 10.444-3.14 19.307-9.42a264.19 264.19 0 0 0 6.515-4.765c-.646 2.06-.97 3.937-.97 5.633 0 5.701 4.187 8.552 12.56 8.552 3.385 0 7.705-1.715 12.96-5.145C78.745 85.224 84 80.927 89.257 75.76l-.268.401c1.07.178 1.871.267 2.405.267 7.572 0 18.707-6.814 33.404-20.443.802-.712 1.203-1.514 1.203-2.405 0-.89-.4-1.648-1.203-2.271l-5.21 4.008c-3.475 2.672-7.683 5.5-12.627 8.485-4.944 2.984-8.841 4.832-11.692 5.545 6.77-7.84 10.155-13.406 10.155-16.702 0-3.296-1.514-6.191-4.543-8.685a5.015 5.015 0 0 0-2.94-.936c-5.611.179-11.936 2.54-18.973 7.082-.445 0-.668-.178-.668-.534 0-.357.267-.847.802-1.47l10.422-8.418c7.037-5.523 14.052-11.98 21.044-19.374 6.993-7.394 10.49-12.917 10.49-16.569 0-2.494-2.317-3.741-6.949-3.741-2.583 0-4.387.156-5.411.468-1.025.311-2.294 1.403-3.808 3.273-1.515 1.87-3.029 4.12-4.543 6.748-1.515 2.628-4.61 7.037-9.287 13.228-4.676 6.19-10.177 12.938-16.501 20.243 0-.09-.913.801-2.74 2.672-1.825 1.87-4.052 4.365-6.68 7.483a188.95 188.95 0 0 0-7.817 9.954c-.33.45-.653.902-.971 1.357zm4.044 20.89c3.653 0 8.396-2.583 14.23-7.75C80.46 73.4 85.448 68.011 89.59 62.4c4.142-5.612 6.213-9.264 6.213-10.957 0-.267-.134-.4-.401-.4-4.632 0-9.888 2.493-15.767 7.482-5.879 4.988-10.711 10.2-14.497 15.633-3.786 5.434-5.679 9.175-5.679 11.224 0 .623.312.935.935.935z" fill="#3A506B" fill-rule="evenodd"/></svg>