<?xml version="1.0" encoding="UTF-8"?>
<svg width="126px" height="94px" viewBox="0 0 126 94" version="1.1" xmlns="http://www.w3.org/2000/svg" xmlns:xlink="http://www.w3.org/1999/xlink">
    <!-- Generator: Sketch 41 (35326) - http://www.bohemiancoding.com/sketch -->
    <title>logo</title>
    <desc>Created with Sketch.</desc>
    <defs></defs>
    <g id="Desktop" stroke="none" stroke-width="1" fill="none" fill-rule="evenodd">
        <g id="Work---SIngle" transform="translate(-40.000000, -40.000000)" fill="#3A506B">
            <path d="M96.3500048,105.425872 C80.4910933,115.96773 70.7937188,121.2386 67.2576882,121.2386 C66.8122989,121.2386 66.5896076,121.104985 66.5896076,120.837752 C66.5896076,119.145273 67.8812172,116.91836 70.4644751,114.156946 C73.047733,111.395532 75.8091051,108.90139 78.7486744,106.674443 C81.6882438,104.447497 84.6945764,102.265122 87.7677625,100.127253 C90.8409486,97.9893849 92.6670173,96.7200444 93.2460233,96.3191941 C93.8250294,95.9183437 94.1145281,95.4061537 94.1145281,94.7826087 C94.1145281,94.1590637 93.0010716,92.3775333 90.7741251,89.4379639 C90.1505801,88.8144189 89.1484693,88.5026511 87.7677625,88.5026511 C86.3870557,88.5026511 84.5387178,88.8812263 82.2226935,89.6383881 C79.9066692,90.3955499 78.1028697,90.7741251 76.8112407,90.7741251 C75.5196118,90.7741251 72.4687409,89.5715921 67.6585366,87.1664899 C62.8483323,84.7613878 59.9533453,83.5588547 58.9734889,83.5588547 C56.390231,83.5588547 54.519624,83.8483534 53.3616119,84.4273595 C52.2035997,85.0063656 51.6246023,86.1866295 51.6246023,87.9681866 C51.6246023,88.2354202 51.7582171,88.6808028 52.0254507,89.3043478 C52.8271514,91.1749828 54.6532201,93.0901281 57.5037116,95.0498409 C52.1590401,98.9692667 47.0371401,102.621404 42.1378579,106.006363 C40.7126122,107.164375 40,108.077409 40,108.745493 C40,109.413577 41.0689183,109.747614 43.2067869,109.747614 C45.3446554,109.747614 47.0816476,109.257693 48.4178155,108.277837 C54.1187984,103.467632 58.1272419,100.038186 60.4432662,97.9893955 C61.155889,99.0583298 62.8038047,99.9713642 65.3870626,100.728526 C67.9703204,101.485688 70.0190804,101.864263 71.533404,101.864263 C64.2290197,107.208934 59.4411566,111.462338 57.1696713,114.624602 C54.8981859,117.786866 53.7624602,121.060428 53.7624602,124.445387 C53.7624602,130.680837 56.8801385,133.798515 63.1155885,133.798515 C67.1240922,133.798515 73.5598708,130.658568 82.4231177,124.378579 C84.6525674,122.798919 86.8242394,121.21081 88.9381376,119.614251 C88.2915017,121.673233 87.9681866,123.550837 87.9681866,125.247084 C87.9681866,130.948067 92.1547832,133.798515 100.528102,133.798515 C103.91306,133.798515 108.233272,132.083792 113.488865,128.654295 C118.744459,125.224797 123.999974,120.926855 129.255567,115.760339 L128.988335,116.161188 C130.057269,116.339343 130.858958,116.42842 131.393425,116.42842 C138.965043,116.42842 150.099608,109.614066 164.797455,95.9851538 C165.599156,95.2725309 166,94.4708422 166,93.5800636 C166,92.689285 165.599156,91.9321346 164.797455,91.3085896 L159.586426,95.3170732 C156.11239,97.9894089 151.903524,100.817588 146.959703,103.801697 C142.015882,106.785805 138.118784,108.634143 135.268293,109.346766 C142.03821,101.507914 145.423118,95.9406315 145.423118,92.6447508 C145.423118,89.3488701 143.908817,86.4538831 140.88017,83.9597031 C139.989391,83.3361581 139.009549,83.0243902 137.940615,83.0243902 C132.32871,83.202546 126.004277,85.5630738 118.967126,90.1060445 C118.521737,90.1060445 118.299046,89.9278915 118.299046,89.5715801 C118.299046,89.2152686 118.566275,88.7253478 119.100742,88.1018028 L129.5228,79.6839873 C136.55995,74.1611601 143.574726,67.7031123 150.567338,60.3096501 C157.55995,52.9161878 161.056204,47.3934435 161.056204,43.7412513 C161.056204,41.2470713 158.740214,40 154.108165,40 C151.524908,40 149.721108,40.1558839 148.696713,40.4676564 C147.672317,40.7794289 146.402977,41.8706163 144.888653,43.7412513 C143.37433,45.6118863 141.860029,47.8610685 140.345705,50.4888653 C138.831382,53.1166621 135.735972,57.52595 131.059385,63.7168611 C126.382797,69.9077722 120.882322,76.6553187 114.557794,83.9597031 C114.557794,83.8706252 113.64476,84.7613904 111.818664,86.6320255 C109.992568,88.5026605 107.765655,90.9968031 105.137858,94.1145281 C102.510061,97.2322531 99.9045728,100.550354 97.321315,104.068929 C96.9913698,104.518337 96.6676011,104.970651 96.3500089,105.42587 Z M100.394486,126.316013 C104.046678,126.316013 108.790003,123.732794 114.624602,118.566278 C120.459202,113.399762 125.447487,108.010633 129.589608,102.398727 C133.731728,96.7868224 135.802757,93.134685 135.802757,91.4422057 C135.802757,91.1749722 135.669142,91.0413574 135.401909,91.0413574 C130.76986,91.0413574 125.514345,93.5355 119.635207,98.52386 C113.756068,103.51222 108.923667,108.723197 105.137858,114.156946 C101.352049,119.590695 99.4591729,123.331909 99.4591729,125.3807 C99.4591729,126.004245 99.7709407,126.316013 100.394486,126.316013 L100.394486,126.316013 Z" id="logo"></path>
        </g>
    </g>
</svg>